<svg xmlns="http://www.w3.org/2000/svg" xmlns:xlink="http://www.w3.org/1999/xlink" width="1920" zoomAndPan="magnify" viewBox="0 0 1440 809.999993" height="1080" preserveAspectRatio="xMidYMid meet" version="1.0"><defs><g/><clipPath id="03ad7b898b"><path d="M 285.027344 335.382812 L 424.257812 335.382812 L 424.257812 474.617188 L 285.027344 474.617188 Z M 285.027344 335.382812 " clip-rule="nonzero"/></clipPath><clipPath id="6e713dee47"><path d="M 354.644531 335.382812 C 316.195312 335.382812 285.027344 366.550781 285.027344 405 C 285.027344 443.449219 316.195312 474.617188 354.644531 474.617188 C 393.089844 474.617188 424.257812 443.449219 424.257812 405 C 424.257812 366.550781 393.089844 335.382812 354.644531 335.382812 Z M 354.644531 335.382812 " clip-rule="nonzero"/></clipPath><clipPath id="7c39a6ff75"><path d="M 307.550781 423.121094 L 321.542969 423.121094 L 321.542969 437.113281 L 307.550781 437.113281 Z M 307.550781 423.121094 " clip-rule="nonzero"/></clipPath><clipPath id="d81a54f614"><path d="M 314.546875 423.121094 C 310.683594 423.121094 307.550781 426.253906 307.550781 430.117188 C 307.550781 433.980469 310.683594 437.113281 314.546875 437.113281 C 318.410156 437.113281 321.542969 433.980469 321.542969 430.117188 C 321.542969 426.253906 318.410156 423.121094 314.546875 423.121094 Z M 314.546875 423.121094 " clip-rule="nonzero"/></clipPath><clipPath id="1c495d926c"><path d="M 364.390625 423.121094 L 378.382812 423.121094 L 378.382812 437.113281 L 364.390625 437.113281 Z M 364.390625 423.121094 " clip-rule="nonzero"/></clipPath><clipPath id="2e77ef9909"><path d="M 371.386719 423.121094 C 367.523438 423.121094 364.390625 426.253906 364.390625 430.117188 C 364.390625 433.980469 367.523438 437.113281 371.386719 437.113281 C 375.253906 437.113281 378.382812 433.980469 378.382812 430.117188 C 378.382812 426.253906 375.253906 423.121094 371.386719 423.121094 Z M 371.386719 423.121094 " clip-rule="nonzero"/></clipPath><clipPath id="8b6f2f8bac"><path d="M 387.941406 367.960938 L 401.933594 367.960938 L 401.933594 381.953125 L 387.941406 381.953125 Z M 387.941406 367.960938 " clip-rule="nonzero"/></clipPath><clipPath id="46d22759ed"><path d="M 394.9375 367.960938 C 391.074219 367.960938 387.941406 371.09375 387.941406 374.957031 C 387.941406 378.824219 391.074219 381.953125 394.9375 381.953125 C 398.800781 381.953125 401.933594 378.824219 401.933594 374.957031 C 401.933594 371.09375 398.800781 367.960938 394.9375 367.960938 Z M 394.9375 367.960938 " clip-rule="nonzero"/></clipPath><clipPath id="991d8892ae"><path d="M 331.671875 367.960938 L 345.667969 367.960938 L 345.667969 381.953125 L 331.671875 381.953125 Z M 331.671875 367.960938 " clip-rule="nonzero"/></clipPath><clipPath id="3955e06d3a"><path d="M 338.667969 367.960938 C 334.804688 367.960938 331.671875 371.09375 331.671875 374.957031 C 331.671875 378.824219 334.804688 381.953125 338.667969 381.953125 C 342.535156 381.953125 345.667969 378.824219 345.667969 374.957031 C 345.667969 371.09375 342.535156 367.960938 338.667969 367.960938 Z M 338.667969 367.960938 " clip-rule="nonzero"/></clipPath></defs><rect x="-144" width="1728" fill="#ffffff" y="-80.999999" height="971.999992" fill-opacity="1"/><rect x="-144" width="1728" fill="#ffffff" y="-80.999999" height="971.999992" fill-opacity="1"/><g clip-path="url(#03ad7b898b)"><g clip-path="url(#6e713dee47)"><path fill="#1db954" d="M 285.027344 335.382812 L 424.257812 335.382812 L 424.257812 474.617188 L 285.027344 474.617188 Z M 285.027344 335.382812 " fill-opacity="1" fill-rule="nonzero"/></g></g><g clip-path="url(#7c39a6ff75)"><g clip-path="url(#d81a54f614)"><path fill="#121212" d="M 307.550781 423.121094 L 321.542969 423.121094 L 321.542969 437.113281 L 307.550781 437.113281 Z M 307.550781 423.121094 " fill-opacity="1" fill-rule="nonzero"/></g></g><g fill="#1db954" fill-opacity="1"><g transform="translate(434.779114, 432.063283)"><g><path d="M 23.890625 0.921875 C 19.660156 0.921875 15.570312 0.347656 11.625 -0.796875 C 7.6875 -1.941406 4.523438 -3.429688 2.140625 -5.265625 L 6.328125 -14.578125 C 8.617188 -12.898438 11.34375 -11.550781 14.5 -10.53125 C 17.65625 -9.507812 20.8125 -9 23.96875 -9 C 27.476562 -9 30.070312 -9.519531 31.75 -10.5625 C 33.425781 -11.613281 34.265625 -13.003906 34.265625 -14.734375 C 34.265625 -16.003906 33.765625 -17.054688 32.765625 -17.890625 C 31.773438 -18.734375 30.503906 -19.410156 28.953125 -19.921875 C 27.410156 -20.429688 25.316406 -20.988281 22.671875 -21.59375 C 18.597656 -22.5625 15.265625 -23.53125 12.671875 -24.5 C 10.078125 -25.46875 7.847656 -27.019531 5.984375 -29.15625 C 4.128906 -31.289062 3.203125 -34.140625 3.203125 -37.703125 C 3.203125 -40.804688 4.039062 -43.613281 5.71875 -46.125 C 7.394531 -48.644531 9.925781 -50.640625 13.3125 -52.109375 C 16.695312 -53.585938 20.832031 -54.328125 25.71875 -54.328125 C 29.125 -54.328125 32.453125 -53.921875 35.703125 -53.109375 C 38.960938 -52.296875 41.816406 -51.128906 44.265625 -49.609375 L 40.453125 -40.21875 C 35.515625 -43.007812 30.578125 -44.40625 25.640625 -44.40625 C 22.179688 -44.40625 19.625 -43.847656 17.96875 -42.734375 C 16.3125 -41.617188 15.484375 -40.144531 15.484375 -38.3125 C 15.484375 -36.476562 16.4375 -35.113281 18.34375 -34.21875 C 20.257812 -33.332031 23.175781 -32.457031 27.09375 -31.59375 C 31.164062 -30.625 34.5 -29.65625 37.09375 -28.6875 C 39.6875 -27.726562 41.910156 -26.203125 43.765625 -24.109375 C 45.617188 -22.023438 46.546875 -19.203125 46.546875 -15.640625 C 46.546875 -12.585938 45.691406 -9.800781 43.984375 -7.28125 C 42.285156 -4.769531 39.734375 -2.773438 36.328125 -1.296875 C 32.921875 0.179688 28.773438 0.921875 23.890625 0.921875 Z M 23.890625 0.921875 "/></g></g></g><g fill="#1db954" fill-opacity="1"><g transform="translate(483.464932, 432.063283)"><g><path d="M 29.765625 -41.671875 C 33.578125 -41.671875 37.046875 -40.789062 40.171875 -39.03125 C 43.304688 -37.28125 45.765625 -34.8125 47.546875 -31.625 C 49.328125 -28.445312 50.21875 -24.75 50.21875 -20.53125 C 50.21875 -16.300781 49.328125 -12.597656 47.546875 -9.421875 C 45.765625 -6.242188 43.304688 -3.773438 40.171875 -2.015625 C 37.046875 -0.265625 33.578125 0.609375 29.765625 0.609375 C 24.523438 0.609375 20.40625 -1.039062 17.40625 -4.34375 L 17.40625 14.796875 L 5.5 14.796875 L 5.5 -41.0625 L 16.859375 -41.0625 L 16.859375 -36.328125 C 19.816406 -39.890625 24.117188 -41.671875 29.765625 -41.671875 Z M 27.703125 -9.15625 C 30.753906 -9.15625 33.257812 -10.1875 35.21875 -12.25 C 37.175781 -14.3125 38.15625 -17.070312 38.15625 -20.53125 C 38.15625 -23.988281 37.175781 -26.75 35.21875 -28.8125 C 33.257812 -30.875 30.753906 -31.90625 27.703125 -31.90625 C 24.648438 -31.90625 22.144531 -30.875 20.1875 -28.8125 C 18.226562 -26.75 17.25 -23.988281 17.25 -20.53125 C 17.25 -17.070312 18.226562 -14.3125 20.1875 -12.25 C 22.144531 -10.1875 24.648438 -9.15625 27.703125 -9.15625 Z M 27.703125 -9.15625 "/></g></g></g><g fill="#1db954" fill-opacity="1"><g transform="translate(536.118873, 432.063283)"><g><path d="M 25.03125 0.609375 C 20.707031 0.609375 16.828125 -0.289062 13.390625 -2.09375 C 9.953125 -3.90625 7.265625 -6.410156 5.328125 -9.609375 C 3.398438 -12.816406 2.4375 -16.457031 2.4375 -20.53125 C 2.4375 -24.601562 3.398438 -28.238281 5.328125 -31.4375 C 7.265625 -34.644531 9.953125 -37.148438 13.390625 -38.953125 C 16.828125 -40.765625 20.707031 -41.671875 25.03125 -41.671875 C 29.351562 -41.671875 33.21875 -40.765625 36.625 -38.953125 C 40.039062 -37.148438 42.710938 -34.644531 44.640625 -31.4375 C 46.578125 -28.238281 47.546875 -24.601562 47.546875 -20.53125 C 47.546875 -16.457031 46.578125 -12.816406 44.640625 -9.609375 C 42.710938 -6.410156 40.039062 -3.90625 36.625 -2.09375 C 33.21875 -0.289062 29.351562 0.609375 25.03125 0.609375 Z M 25.03125 -9.15625 C 28.082031 -9.15625 30.585938 -10.1875 32.546875 -12.25 C 34.503906 -14.3125 35.484375 -17.070312 35.484375 -20.53125 C 35.484375 -23.988281 34.503906 -26.75 32.546875 -28.8125 C 30.585938 -30.875 28.082031 -31.90625 25.03125 -31.90625 C 21.976562 -31.90625 19.457031 -30.875 17.46875 -28.8125 C 15.488281 -26.75 14.5 -23.988281 14.5 -20.53125 C 14.5 -17.070312 15.488281 -14.3125 17.46875 -12.25 C 19.457031 -10.1875 21.976562 -9.15625 25.03125 -9.15625 Z M 25.03125 -9.15625 "/></g></g></g><g fill="#1db954" fill-opacity="1"><g transform="translate(586.101963, 432.063283)"><g><path d="M 31.96875 -1.984375 C 30.800781 -1.117188 29.363281 -0.46875 27.65625 -0.03125 C 25.957031 0.394531 24.164062 0.609375 22.28125 0.609375 C 17.394531 0.609375 13.613281 -0.632812 10.9375 -3.125 C 8.269531 -5.625 6.9375 -9.289062 6.9375 -14.125 L 6.9375 -30.984375 L 0.609375 -30.984375 L 0.609375 -40.140625 L 6.9375 -40.140625 L 6.9375 -50.140625 L 18.84375 -50.140625 L 18.84375 -40.140625 L 29.078125 -40.140625 L 29.078125 -30.984375 L 18.84375 -30.984375 L 18.84375 -14.265625 C 18.84375 -12.535156 19.285156 -11.203125 20.171875 -10.265625 C 21.066406 -9.328125 22.332031 -8.859375 23.96875 -8.859375 C 25.84375 -8.859375 27.441406 -9.363281 28.765625 -10.375 Z M 31.96875 -1.984375 "/></g></g></g><g fill="#1db954" fill-opacity="1"><g transform="translate(619.296843, 432.063283)"><g><path d="M 46.25 -41.0625 L 27.703125 2.515625 C 25.816406 7.242188 23.488281 10.578125 20.71875 12.515625 C 17.945312 14.453125 14.601562 15.421875 10.6875 15.421875 C 8.550781 15.421875 6.4375 15.085938 4.34375 14.421875 C 2.257812 13.765625 0.554688 12.847656 -0.765625 11.671875 L 3.59375 3.203125 C 4.5 4.015625 5.550781 4.648438 6.75 5.109375 C 7.945312 5.566406 9.128906 5.796875 10.296875 5.796875 C 11.929688 5.796875 13.253906 5.398438 14.265625 4.609375 C 15.285156 3.828125 16.203125 2.519531 17.015625 0.6875 L 17.171875 0.3125 L -0.609375 -41.0625 L 11.671875 -41.0625 L 23.203125 -13.203125 L 34.796875 -41.0625 Z M 46.25 -41.0625 "/></g></g></g><g fill="#1db954" fill-opacity="1"><g transform="translate(664.930251, 432.063283)"><g><path d="M 47.84375 -41.0625 L 47.84375 -6.875 C 47.84375 0.65625 45.882812 6.253906 41.96875 9.921875 C 38.050781 13.585938 32.328125 15.421875 24.796875 15.421875 C 20.828125 15.421875 17.0625 14.9375 13.5 13.96875 C 9.945312 13 7 11.597656 4.65625 9.765625 L 9.390625 1.21875 C 11.117188 2.644531 13.304688 3.773438 15.953125 4.609375 C 18.597656 5.453125 21.242188 5.875 23.890625 5.875 C 28.003906 5.875 31.039062 4.945312 33 3.09375 C 34.957031 1.238281 35.9375 -1.570312 35.9375 -5.34375 L 35.9375 -7.09375 C 32.832031 -3.6875 28.507812 -1.984375 22.96875 -1.984375 C 19.207031 -1.984375 15.757812 -2.804688 12.625 -4.453125 C 9.5 -6.109375 7.019531 -8.4375 5.1875 -11.4375 C 3.351562 -14.445312 2.4375 -17.910156 2.4375 -21.828125 C 2.4375 -25.742188 3.351562 -29.203125 5.1875 -32.203125 C 7.019531 -35.203125 9.5 -37.53125 12.625 -39.1875 C 15.757812 -40.84375 19.207031 -41.671875 22.96875 -41.671875 C 28.925781 -41.671875 33.453125 -39.710938 36.546875 -35.796875 L 36.546875 -41.0625 Z M 25.328125 -11.75 C 28.484375 -11.75 31.066406 -12.675781 33.078125 -14.53125 C 35.085938 -16.394531 36.09375 -18.828125 36.09375 -21.828125 C 36.09375 -24.828125 35.085938 -27.253906 33.078125 -29.109375 C 31.066406 -30.972656 28.484375 -31.90625 25.328125 -31.90625 C 22.179688 -31.90625 19.585938 -30.972656 17.546875 -29.109375 C 15.515625 -27.253906 14.5 -24.828125 14.5 -21.828125 C 14.5 -18.828125 15.515625 -16.394531 17.546875 -14.53125 C 19.585938 -12.675781 22.179688 -11.75 25.328125 -11.75 Z M 25.328125 -11.75 "/></g></g></g><g fill="#1db954" fill-opacity="1"><g transform="translate(718.347291, 432.063283)"><g><path d="M 16.859375 -35.640625 C 18.285156 -37.617188 20.207031 -39.117188 22.625 -40.140625 C 25.039062 -41.160156 27.828125 -41.671875 30.984375 -41.671875 L 30.984375 -30.671875 C 29.660156 -30.773438 28.769531 -30.828125 28.3125 -30.828125 C 24.90625 -30.828125 22.234375 -29.875 20.296875 -27.96875 C 18.367188 -26.0625 17.40625 -23.203125 17.40625 -19.390625 L 17.40625 0 L 5.5 0 L 5.5 -41.0625 L 16.859375 -41.0625 Z M 16.859375 -35.640625 "/></g></g></g><g fill="#1db954" fill-opacity="1"><g transform="translate(751.236918, 432.063283)"><g><path d="M 22.046875 -41.671875 C 28.410156 -41.671875 33.296875 -40.15625 36.703125 -37.125 C 40.109375 -34.09375 41.8125 -29.523438 41.8125 -23.421875 L 41.8125 0 L 30.671875 0 L 30.671875 -5.109375 C 28.429688 -1.296875 24.257812 0.609375 18.15625 0.609375 C 15.007812 0.609375 12.273438 0.078125 9.953125 -0.984375 C 7.640625 -2.054688 5.875 -3.53125 4.65625 -5.40625 C 3.4375 -7.289062 2.828125 -9.429688 2.828125 -11.828125 C 2.828125 -15.640625 4.265625 -18.640625 7.140625 -20.828125 C 10.015625 -23.015625 14.453125 -24.109375 20.453125 -24.109375 L 29.921875 -24.109375 C 29.921875 -26.703125 29.128906 -28.695312 27.546875 -30.09375 C 25.972656 -31.5 23.609375 -32.203125 20.453125 -32.203125 C 18.265625 -32.203125 16.113281 -31.859375 14 -31.171875 C 11.894531 -30.484375 10.101562 -29.554688 8.625 -28.390625 L 4.34375 -36.703125 C 6.582031 -38.285156 9.265625 -39.507812 12.390625 -40.375 C 15.523438 -41.238281 18.742188 -41.671875 22.046875 -41.671875 Z M 21.140625 -7.40625 C 23.171875 -7.40625 24.972656 -7.875 26.546875 -8.8125 C 28.128906 -9.75 29.253906 -11.132812 29.921875 -12.96875 L 29.921875 -17.171875 L 21.75 -17.171875 C 16.863281 -17.171875 14.421875 -15.566406 14.421875 -12.359375 C 14.421875 -10.835938 15.019531 -9.628906 16.21875 -8.734375 C 17.414062 -7.847656 19.054688 -7.40625 21.140625 -7.40625 Z M 21.140625 -7.40625 "/></g></g></g><g fill="#1db954" fill-opacity="1"><g transform="translate(798.32022, 432.063283)"><g><path d="M 29.765625 -41.671875 C 33.578125 -41.671875 37.046875 -40.789062 40.171875 -39.03125 C 43.304688 -37.28125 45.765625 -34.8125 47.546875 -31.625 C 49.328125 -28.445312 50.21875 -24.75 50.21875 -20.53125 C 50.21875 -16.300781 49.328125 -12.597656 47.546875 -9.421875 C 45.765625 -6.242188 43.304688 -3.773438 40.171875 -2.015625 C 37.046875 -0.265625 33.578125 0.609375 29.765625 0.609375 C 24.523438 0.609375 20.40625 -1.039062 17.40625 -4.34375 L 17.40625 14.796875 L 5.5 14.796875 L 5.5 -41.0625 L 16.859375 -41.0625 L 16.859375 -36.328125 C 19.816406 -39.890625 24.117188 -41.671875 29.765625 -41.671875 Z M 27.703125 -9.15625 C 30.753906 -9.15625 33.257812 -10.1875 35.21875 -12.25 C 37.175781 -14.3125 38.15625 -17.070312 38.15625 -20.53125 C 38.15625 -23.988281 37.175781 -26.75 35.21875 -28.8125 C 33.257812 -30.875 30.753906 -31.90625 27.703125 -31.90625 C 24.648438 -31.90625 22.144531 -30.875 20.1875 -28.8125 C 18.226562 -26.75 17.25 -23.988281 17.25 -20.53125 C 17.25 -17.070312 18.226562 -14.3125 20.1875 -12.25 C 22.144531 -10.1875 24.648438 -9.15625 27.703125 -9.15625 Z M 27.703125 -9.15625 "/></g></g></g><g fill="#1db954" fill-opacity="1"><g transform="translate(850.974161, 432.063283)"><g><path d="M 30.453125 -41.671875 C 35.535156 -41.671875 39.640625 -40.144531 42.765625 -37.09375 C 45.898438 -34.039062 47.46875 -29.507812 47.46875 -23.5 L 47.46875 0 L 35.5625 0 L 35.5625 -21.671875 C 35.5625 -24.929688 34.847656 -27.359375 33.421875 -28.953125 C 31.992188 -30.554688 29.9375 -31.359375 27.25 -31.359375 C 24.238281 -31.359375 21.84375 -30.429688 20.0625 -28.578125 C 18.289062 -26.722656 17.40625 -23.960938 17.40625 -20.296875 L 17.40625 0 L 5.5 0 L 5.5 -56.625 L 17.40625 -56.625 L 17.40625 -36.78125 C 18.976562 -38.351562 20.882812 -39.5625 23.125 -40.40625 C 25.363281 -41.25 27.804688 -41.671875 30.453125 -41.671875 Z M 30.453125 -41.671875 "/></g></g></g><g clip-path="url(#1c495d926c)"><g clip-path="url(#2e77ef9909)"><path fill="#121212" d="M 364.390625 423.121094 L 378.382812 423.121094 L 378.382812 437.113281 L 364.390625 437.113281 Z M 364.390625 423.121094 " fill-opacity="1" fill-rule="nonzero"/></g></g><g clip-path="url(#8b6f2f8bac)"><g clip-path="url(#46d22759ed)"><path fill="#121212" d="M 387.941406 367.960938 L 401.933594 367.960938 L 401.933594 381.953125 L 387.941406 381.953125 Z M 387.941406 367.960938 " fill-opacity="1" fill-rule="nonzero"/></g></g><g clip-path="url(#991d8892ae)"><g clip-path="url(#3955e06d3a)"><path fill="#121212" d="M 331.671875 367.960938 L 345.667969 367.960938 L 345.667969 381.953125 L 331.671875 381.953125 Z M 331.671875 367.960938 " fill-opacity="1" fill-rule="nonzero"/></g></g><path stroke-linecap="butt" transform="matrix(0.294481, -0.689769, 0.689769, 0.294481, 373.099411, 423.236399)" fill="none" stroke-linejoin="miter" d="M -0.00257611 1.499286 L 61.306647 1.499667 " stroke="#000000" stroke-width="3" stroke-opacity="1" stroke-miterlimit="4"/><path stroke-linecap="butt" transform="matrix(0.382623, 0.645058, -0.645058, 0.382623, 343.206404, 380.404806)" fill="none" stroke-linejoin="miter" d="M 0.00161694 1.501791 L 66.850296 1.501379 " stroke="#000000" stroke-width="3" stroke-opacity="1" stroke-miterlimit="4"/><path stroke-linecap="butt" transform="matrix(0.300528, -0.687155, 0.687155, 0.300528, 316.31621, 423.249263)" fill="none" stroke-linejoin="miter" d="M 0.0014025 1.500424 L 61.611796 1.500365 " stroke="#000000" stroke-width="3" stroke-opacity="1" stroke-miterlimit="4"/></svg>